<svg xmlns="http://www.w3.org/2000/svg" xmlns:xlink="http://www.w3.org/1999/xlink" viewBox="0 0 1024 1024" width="1024" height="1024" preserveAspectRatio="xMidYMid meet" style="width: 100%; height: 100%; transform: translate3d(0px, 0px, 0px); content-visibility: visible;"><defs><clipPath id="__lottie_element_410"><rect width="1024" height="1024" x="0" y="0"/></clipPath><clipPath id="__lottie_element_415"><path d="M0,0 L1280,0 L1280,1280 L0,1280z"/></clipPath><g id="__lottie_element_428"><g transform="matrix(1,0,0,1,198.23001098632812,265.42999267578125)" opacity="1" style="display: block;"><g opacity="1" transform="matrix(1,0,0,1,454.80999755859375,330.4100036621094)"><path fill="rgb(54,180,224)" fill-opacity="1" d=" M231.6005401611328,34.92236328125 C231.6005401611328,34.92236328125 296.7198181152344,-107.72602844238281 314.07269287109375,-127.27521514892578 C331.42559814453125,-146.82440185546875 357.72332763671875,-179.4134979248047 356.79449462890625,-187.91275024414062 C354.40814208984375,-209.51498413085938 286.83502197265625,-237.8747100830078 207.30181884765625,-238.5531768798828 C128.75979614257812,-239.20252990722656 65.20389556884766,-225.68588256835938 57.62795639038086,-214.41700744628906 C47.49578094482422,-199.5768585205078 42.01260757446289,-98.65574645996094 0.5133994221687317,-92.77359008789062 C-28.90290641784668,-89.26007080078125 -63.272335052490234,-95.62227630615234 -117.60320281982422,-88.43377685546875 C-170.8710479736328,-81.77350616455078 -256.04541015625,-73.55152130126953 -378.3063659667969,-16.55702018737793 C-414.2314453125,-1.7536194324493408 -564.919677734375,83.697265625 -512.5628662109375,241.8243865966797 C-484.6878662109375,326.3252868652344 -408.8199462890625,380.6761474609375 -310.5091552734375,351.6042785644531 C-249.6688690185547,335.5404968261719 -239.9590301513672,318.2431335449219 -121.51766967773438,305.7831726074219 C-51.1322021484375,300.3260803222656 11.387529373168945,284.728271484375 51.74566650390625,268.0449523925781 C82.49783325195312,255.4091033935547 136.99188232421875,238.34925842285156 176.21762084960938,186.00413513183594 C212.34765625,137.57749938964844 219.06947326660156,104.83766174316406 231.6005401611328,34.92236328125z"/></g></g></g><clipPath id="__lottie_element_438"><path d="M0,0 L1280,0 L1280,1280 L0,1280z"/></clipPath><g id="__lottie_element_451"><g transform="matrix(1,0,0,1,198.23001098632812,265.42999267578125)" opacity="1" style="display: block;"><g opacity="1" transform="matrix(1,0,0,1,454.80999755859375,330.4100036621094)"><path fill="rgb(54,180,224)" fill-opacity="1" d=" M182.85931396484375,124.28630065917969 C182.85931396484375,124.28630065917969 368.2936706542969,2.6391124725341797 390.8304748535156,-10.698956489562988 C413.3672790527344,-24.037025451660156 448.4267272949219,-47.07805633544922 450.14300537109375,-55.469669342041016 C454.4775085449219,-76.8078842163086 396.9342346191406,-124.1190185546875 321.6064147949219,-146.93719482421875 C246.27700805664062,-169.82998657226562 181.8076171875,-175.98329162597656 171.13125610351562,-167.55178833007812 C156.9236297607422,-156.496337890625 93.89932250976562,-40.03369903564453 52.21931838989258,-45.633697509765625 C-1.8606805801391602,-52.99369812011719 -38.49729919433594,-102.20254516601562 -48.47853469848633,-130.97752380371094 C-59.79585266113281,-163.599853515625 -127.95990753173828,-329.9818115234375 -295.1872863769531,-293.4960021972656 C-383.9267883300781,-274.12481689453125 -453.40740966796875,-199.847412109375 -428.19134521484375,-86.03751373291016 C-413.2489318847656,-18.52053451538086 -403.95709228515625,5.2912774085998535 -398.54498291015625,35.71784591674805 C-387.1001281738281,99.69407653808594 -389.62066650390625,128.52630615234375 -362.5806884765625,187.0863037109375 C-333.8606872558594,249.4062957763672 -228.18067932128906,329.40631103515625 -96.4206771850586,310.206298828125 C-18.90715217590332,297.6166076660156 41.850196838378906,292.2485046386719 87.2132797241211,258.52996826171875 C129.7870330810547,226.97645568847656 158.58349609375,168.09454345703125 182.85931396484375,124.28630065917969z"/></g></g></g><clipPath id="__lottie_element_461"><path d="M0,0 L1280,0 L1280,1280 L0,1280z"/></clipPath><g id="__lottie_element_474"><g transform="matrix(1,0,0,1,172.05712890625,265.42999267578125)" opacity="1" style="display: block;"><g opacity="1" transform="matrix(1,0,0,1,454.80999755859375,330.4100036621094)"><path fill="rgb(54,180,224)" fill-opacity="1" d=" M235.9930419921875,139.61700439453125 C248.49903869628906,91.68299865722656 247.4353790283203,66.15599822998047 245.09437561035156,-0.6039999723434448 C243.29737854003906,-51.84000015258789 203.47813415527344,-130.69500732421875 197.8271484375,-136.98399353027344 C183.46214294433594,-152.9709930419922 139.7391357421875,-148.64999389648438 49.460140228271484,-152.52000427246094 C-72.55586242675781,-157.75100708007812 -114.0258560180664,-148.47900390625 -116.99785614013672,-122.35800170898438 C-127.68885803222656,-63.099998474121094 222.6063690185547,7.89300012588501 222.6063690185547,7.89300012588501 C222.6063690185547,7.89300012588501 216.2201385498047,-84.5979995727539 205.6211395263672,-120.2239990234375 C182.02813720703125,-199.5279998779297 137.55665588378906,-275.3160095214844 22.048662185668945,-269.1180114746094 C-78.28234100341797,-263.7340087890625 -127.21286010742188,-205.31700134277344 -157.28985595703125,-110.23999786376953 C-178.11386108398438,-44.4109992980957 -175.8047637939453,18.013999938964844 -174.44876098632812,65.50299835205078 C-172.52976989746094,132.6840057373047 -162.98077392578125,172.1009979248047 -133.19276428222656,213.7239990234375 C-98.52976989746094,262.1600036621094 -61.668338775634766,288.2550048828125 29.00566291809082,291.34600830078125 C111.5566635131836,294.1600036621094 139.1034698486328,275.3070068359375 170.6414794921875,247.4969940185547 C205.58546447753906,216.6840057373047 224.3660430908203,184.18099975585938 235.9930419921875,139.61700439453125z"/></g></g></g><mask id="__lottie_element_474_1" mask-type="alpha"><use xmlns:ns1="http://www.w3.org/1999/xlink" ns1:href="#__lottie_element_474"/></mask></defs><g clip-path="url(#__lottie_element_410)"><g clip-path="url(#__lottie_element_415)" transform="matrix(1,0,0,1,-128,-128)" opacity="1" style="display: none;"><g transform="matrix(1,0,0,1,405.3500061035156,871.6700439453125)" opacity="1" style="display: block;"><g opacity="1" transform="matrix(1,0,0,1,75.29000091552734,76.29000091552734)"><path fill="rgb(248,124,34)" fill-opacity="1" d=" M3.9200000762939453,-69.23999786376953 C3.9200000762939453,-69.23999786376953 25.280000686645508,-11.800000190734863 12.960000038146973,8.440999984741211 C0.5600000023841858,28.68000030517578 -48.959999084472656,24.760000228881836 -64.16000366210938,34.361000061035156 C-75.04000091552734,41.2400016784668 -74.87999725341797,60.28099822998047 -68.08000183105469,68.12000274658203 C-61.36000061035156,76.04000091552734 36.63999938964844,69.23999786376953 55.84000015258789,32.119998931884766 C75.04000091552734,-5 48.959999084472656,-76.04000091552734 48.959999084472656,-76.04000091552734 C48.959999084472656,-76.04000091552734 3.9200000762939453,-69.23999786376953 3.9200000762939453,-69.23999786376953z"/></g><g opacity="1" transform="matrix(1,0,0,1,185.85000610351562,107.80999755859375)"><path fill="rgb(248,124,34)" fill-opacity="1" d=" M49.84000015258789,-107.55999755859375 C49.84000015258789,-107.55999755859375 8.15999984741211,-98.5199966430664 8.15999984741211,-98.5199966430664 C8.15999984741211,-98.5199966430664 26.15999984741211,-23.079999923706055 11.520000457763672,1.7200000286102295 C-3.119999885559082,26.520000457763672 -55.599998474121094,53.000999450683594 -65.04000091552734,73.80000305175781 C-73.5199966430664,92.36000061035156 -52.63999938964844,107.55999755859375 -20,87.31999969482422 C12.640000343322754,67.08000183105469 49.599998474121094,36.84000015258789 56.560001373291016,21.961000442504883 C73.5199966430664,-14.038999557495117 49.84000015258789,-107.55999755859375 49.84000015258789,-107.55999755859375z"/></g></g><g transform="matrix(1,0,0,1,198.23001098632812,265.42999267578125)" opacity="1" style="display: block;"><g opacity="1" transform="matrix(1,0,0,1,454.80999755859375,330.4100036621094)"><path fill="rgb(54,180,224)" fill-opacity="1" d=" M231.6005401611328,34.92236328125 C231.6005401611328,34.92236328125 296.7198181152344,-107.72602844238281 314.07269287109375,-127.27521514892578 C331.42559814453125,-146.82440185546875 357.72332763671875,-179.4134979248047 356.79449462890625,-187.91275024414062 C354.40814208984375,-209.51498413085938 286.83502197265625,-237.8747100830078 207.30181884765625,-238.5531768798828 C128.75979614257812,-239.20252990722656 65.20389556884766,-225.68588256835938 57.62795639038086,-214.41700744628906 C47.49578094482422,-199.5768585205078 42.01260757446289,-98.65574645996094 0.5133994221687317,-92.77359008789062 C-28.90290641784668,-89.26007080078125 -63.272335052490234,-95.62227630615234 -117.60320281982422,-88.43377685546875 C-170.8710479736328,-81.77350616455078 -256.04541015625,-73.55152130126953 -378.3063659667969,-16.55702018737793 C-414.2314453125,-1.7536194324493408 -564.919677734375,83.697265625 -512.5628662109375,241.8243865966797 C-484.6878662109375,326.3252868652344 -408.8199462890625,380.6761474609375 -310.5091552734375,351.6042785644531 C-249.6688690185547,335.5404968261719 -239.9590301513672,318.2431335449219 -121.51766967773438,305.7831726074219 C-51.1322021484375,300.3260803222656 11.387529373168945,284.728271484375 51.74566650390625,268.0449523925781 C82.49783325195312,255.4091033935547 136.99188232421875,238.34925842285156 176.21762084960938,186.00413513183594 C212.34765625,137.57749938964844 219.06947326660156,104.83766174316406 231.6005401611328,34.92236328125z"/></g></g><g transform="matrix(0.9613980650901794,-0.2751612663269043,0.2751612663269043,0.9613980650901794,470.8133239746094,693.1114501953125)" opacity="1" style="display: block;"><g opacity="1" transform="matrix(1,0,0,1,220.7259979248047,116.677001953125)"><path fill="rgb(54,180,224)" fill-opacity="1" d=" M-189.12803649902344,-15.926867485046387 C-189.12803649902344,-15.926867485046387 -43.61969757080078,124.1920394897461 83.97652435302734,88.28706359863281 C83.97652435302734,88.28706359863281 134.76370239257812,44.74870300292969 134.76370239257812,44.74870300292969 C134.76370239257812,44.74870300292969 179.80369567871094,33.46770095825195 179.80369567871094,33.46770095825195 C179.80369567871094,33.46770095825195 186.5247039794922,0.8287013173103333 186.5247039794922,0.8287013173103333 C186.5247039794922,0.8287013173103333 220.20370483398438,-0.6922986507415771 227.0836944580078,-11.572299003601074 C237.9636993408203,-28.851299285888672 235.9365234375,-36.25934982299805 212.4447021484375,-49.891361236572266 C188.9528045654297,-63.51830291748047 45.5761604309082,-132.76077270507812 45.5761604309082,-132.76077270507812"/></g><g opacity="1" transform="matrix(1,0,0,1,208.3300018310547,133.73399353027344)"><path fill="rgb(2,106,168)" fill-opacity="1" d=" M-196.93704223632812,-62.63810729980469 C-212.53704833984375,-56.95710754394531 -188.9568634033203,-8.07958984375 -158.46563720703125,15.560062408447266 C-131.5032958984375,36.557926177978516 -50.27485656738281,88.620849609375 31.645143508911133,96.30084991455078 C87.24613952636719,101.58084869384766 113.7197036743164,84.89070129394531 126.8406982421875,70.5707015991211 C136.59970092773438,59.930702209472656 147.07969665527344,47.61070251464844 154.27969360351562,42.01169967651367 C164.75970458984375,33.77070236206055 175.3197021484375,40.89070129394531 193.3197021484375,27.770700454711914 C206.27969360351562,18.33070182800293 209.07969665527344,2.6507012844085693 215.88070678710938,-3.0282986164093018 C222.59970092773438,-8.629298210144043 234.03970336914062,-7.349298477172852 239.88070678710938,-12.788298606872559 C250.3596954345703,-22.549299240112305 248.9207000732422,-51.10929870605469 241.3997039794922,-52.54929733276367 C233.88070678710938,-53.98830032348633 233.15969848632812,-32.30929946899414 225.6396942138672,-29.269298553466797 C218.1197052001953,-26.229299545288086 208.1197052001953,-28.14929962158203 194.1197052001953,-20.229299545288086 C182.1197052001953,-13.509298324584961 185.88070678710938,0.011701323091983795 177.6396942138672,6.0117011070251465 C169.3997039794922,12.011701583862305 154.3596954345703,3.7707014083862305 134.1197052001953,15.051701545715332 C123.15969848632812,21.13170051574707 113.88069915771484,50.3306999206543 82.27970123291016,57.1317024230957 C43.0797004699707,65.53070068359375 -30.521282196044922,40.80178451538086 -84.54393768310547,11.917145729064941 C-155.5306854248047,-26.39582061767578 -170.2970428466797,-72.39810943603516 -196.93704223632812,-62.63810729980469z"/></g></g><g transform="matrix(0.35115984082221985,-0.9363155364990234,0.9363155364990234,0.35115984082221985,230.80691528320312,817.7525634765625)" opacity="1" style="display: block;"><g opacity="1" transform="matrix(1,0,0,1,34.481998443603516,37.00299835205078)"><path fill="rgb(42,44,46)" fill-opacity="1" d=" M-4.171000003814697,-34.62900161743164 C13.461999893188477,-36.75299835205078 29.624000549316406,-22.97100067138672 31.92799949645996,-3.8459999561309814 C34.231998443603516,15.279000282287598 21.80500030517578,32.50400161743164 4.171000003814697,34.62900161743164 C-13.463000297546387,36.75299835205078 -29.624000549316406,22.97100067138672 -31.92799949645996,3.8459999561309814 C-34.231998443603516,-15.279000282287598 -21.80500030517578,-32.50400161743164 -4.171000003814697,-34.62900161743164z"/></g></g><g transform="matrix(0.5102570056915283,-0.8600219488143921,0.8600219488143921,0.5102570056915283,162.23861694335938,984.8668212890625)" opacity="1" style="display: block;"><g opacity="1" transform="matrix(1,0,0,1,62.970001220703125,49.77000045776367)"><path fill="rgb(248,124,34)" fill-opacity="1" d=" M9.4399995803833,-47.279998779296875 C-4.079999923706055,-49.52000045776367 -38.63999938964844,-12.720000267028809 -45.36000061035156,-3.759999990463257 C-52.08000183105469,5.199999809265137 -62.720001220703125,18.079999923706055 -58.880001068115234,27.760000228881836 C-52.880001068115234,42.79999923706055 -22.079999923706055,43.599998474121094 -4.079999923706055,45.040000915527344 C14.720000267028809,46.560001373291016 50.720001220703125,49.52000045776367 56.720001220703125,38.31999969482422 C62.720001220703125,27.040000915527344 50,-1.440000057220459 39.439998626708984,-18.719999313354492 C29.68000030517578,-34.79999923706055 23.520000457763672,-44.880001068115234 9.4399995803833,-47.279998779296875z"/></g></g></g><g clip-path="url(#__lottie_element_438)" transform="matrix(1,0,0,1,-128,-128)" opacity="1" style="display: none;"><g transform="matrix(1,0,0,1,405.3500061035156,871.6700439453125)" opacity="1" style="display: block;"><g opacity="1" transform="matrix(1,0,0,1,75.29000091552734,76.29000091552734)"><path fill="rgb(248,124,34)" fill-opacity="1" d=" M3.9200000762939453,-69.23999786376953 C3.9200000762939453,-69.23999786376953 25.280000686645508,-11.800000190734863 12.960000038146973,8.440999984741211 C0.5600000023841858,28.68000030517578 -48.959999084472656,24.760000228881836 -64.16000366210938,34.361000061035156 C-75.04000091552734,41.2400016784668 -74.87999725341797,60.28099822998047 -68.08000183105469,68.12000274658203 C-61.36000061035156,76.04000091552734 36.63999938964844,69.23999786376953 55.84000015258789,32.119998931884766 C75.04000091552734,-5 48.959999084472656,-76.04000091552734 48.959999084472656,-76.04000091552734 C48.959999084472656,-76.04000091552734 3.9200000762939453,-69.23999786376953 3.9200000762939453,-69.23999786376953z"/></g><g opacity="1" transform="matrix(1,0,0,1,185.85000610351562,107.80999755859375)"><path fill="rgb(248,124,34)" fill-opacity="1" d=" M49.84000015258789,-107.55999755859375 C49.84000015258789,-107.55999755859375 8.15999984741211,-98.5199966430664 8.15999984741211,-98.5199966430664 C8.15999984741211,-98.5199966430664 26.15999984741211,-23.079999923706055 11.520000457763672,1.7200000286102295 C-3.119999885559082,26.520000457763672 -55.599998474121094,53.000999450683594 -65.04000091552734,73.80000305175781 C-73.5199966430664,92.36000061035156 -52.63999938964844,107.55999755859375 -20,87.31999969482422 C12.640000343322754,67.08000183105469 49.599998474121094,36.84000015258789 56.560001373291016,21.961000442504883 C73.5199966430664,-14.038999557495117 49.84000015258789,-107.55999755859375 49.84000015258789,-107.55999755859375z"/></g></g><g transform="matrix(1,0,0,1,198.23001098632812,265.42999267578125)" opacity="1" style="display: block;"><g opacity="1" transform="matrix(1,0,0,1,454.80999755859375,330.4100036621094)"><path fill="rgb(54,180,224)" fill-opacity="1" d=" M182.85931396484375,124.28630065917969 C182.85931396484375,124.28630065917969 368.2936706542969,2.6391124725341797 390.8304748535156,-10.698956489562988 C413.3672790527344,-24.037025451660156 448.4267272949219,-47.07805633544922 450.14300537109375,-55.469669342041016 C454.4775085449219,-76.8078842163086 396.9342346191406,-124.1190185546875 321.6064147949219,-146.93719482421875 C246.27700805664062,-169.82998657226562 181.8076171875,-175.98329162597656 171.13125610351562,-167.55178833007812 C156.9236297607422,-156.496337890625 93.89932250976562,-40.03369903564453 52.21931838989258,-45.633697509765625 C-1.8606805801391602,-52.99369812011719 -38.49729919433594,-102.20254516601562 -48.47853469848633,-130.97752380371094 C-59.79585266113281,-163.599853515625 -127.95990753173828,-329.9818115234375 -295.1872863769531,-293.4960021972656 C-383.9267883300781,-274.12481689453125 -453.40740966796875,-199.847412109375 -428.19134521484375,-86.03751373291016 C-413.2489318847656,-18.52053451538086 -403.95709228515625,5.2912774085998535 -398.54498291015625,35.71784591674805 C-387.1001281738281,99.69407653808594 -389.62066650390625,128.52630615234375 -362.5806884765625,187.0863037109375 C-333.8606872558594,249.4062957763672 -228.18067932128906,329.40631103515625 -96.4206771850586,310.206298828125 C-18.90715217590332,297.6166076660156 41.850196838378906,292.2485046386719 87.2132797241211,258.52996826171875 C129.7870330810547,226.97645568847656 158.58349609375,168.09454345703125 182.85931396484375,124.28630065917969z"/></g></g><g transform="matrix(1,0,0,1,475.4300231933594,669.9300537109375)" opacity="1" style="display: block;"><g opacity="1" transform="matrix(1,0,0,1,220.7259979248047,116.677001953125)"><path fill="rgb(54,180,224)" fill-opacity="1" d=" M-195.6840057373047,-48.775001525878906 C-195.6840057373047,-48.775001525878906 -51.409000396728516,116.4280014038086 45.20500183105469,82.25700378417969 C45.20500183105469,82.25700378417969 92.48400115966797,40.577999114990234 92.48400115966797,40.577999114990234 C92.48400115966797,40.577999114990234 137.5240020751953,29.297000885009766 137.5240020751953,29.297000885009766 C137.5240020751953,29.297000885009766 144.2449951171875,-3.3420000076293945 144.2449951171875,-3.3420000076293945 C144.2449951171875,-3.3420000076293945 177.9239959716797,-4.86299991607666 184.8040008544922,-15.743000030517578 C195.6840057373047,-33.02199935913086 189.28399658203125,-47.26300048828125 170.1649932861328,-54.0629997253418 C151.0449981689453,-60.784000396728516 -0.06199999898672104,-116.427001953125 -0.06199999898672104,-116.427001953125"/></g><g opacity="1" transform="matrix(1,0,0,1,208.3300018310547,133.73399353027344)"><path fill="rgb(2,106,168)" fill-opacity="1" d=" M-192.47999572753906,-86.72000122070312 C-208.0800018310547,-81.03900146484375 -187.60000610351562,-25.91900062561035 -166.55999755859375,-1.11899995803833 C-144.39999389648438,24.961000442504883 -90.80000305175781,83.5199966430664 -8.880000114440918,91.19999694824219 C46.72100067138672,96.4800033569336 71.44000244140625,80.72000122070312 84.56099700927734,66.4000015258789 C94.31999969482422,55.7599983215332 104.80000305175781,43.439998626708984 112,37.840999603271484 C122.4800033569336,29.600000381469727 133.0399932861328,36.720001220703125 151.0399932861328,23.600000381469727 C164,14.15999984741211 166.8000030517578,-1.5199999809265137 173.6009979248047,-7.198999881744385 C180.32000732421875,-12.800000190734863 191.75999450683594,-11.520000457763672 197.6009979248047,-16.958999633789062 C208.0800018310547,-26.719999313354492 206.64100646972656,-55.279998779296875 199.1199951171875,-56.720001220703125 C191.6009979248047,-58.159000396728516 190.8800048828125,-36.47999954223633 183.36000061035156,-33.439998626708984 C175.83999633789062,-30.399999618530273 165.83999633789062,-32.31999969482422 151.83999633789062,-24.399999618530273 C139.83999633789062,-17.68000030517578 143.6009979248047,-4.158999919891357 135.36000061035156,1.840999960899353 C127.12000274658203,7.841000080108643 112.08000183105469,-0.4000000059604645 91.83999633789062,10.880999565124512 C80.87999725341797,16.961000442504883 71.60099792480469,46.15999984741211 40,52.96099853515625 C0.800000011920929,61.36000061035156 -58,32.80099868774414 -86.16000366210938,12.399999618530273 C-151.52000427246094,-34.95899963378906 -165.83999633789062,-96.4800033569336 -192.47999572753906,-86.72000122070312z"/></g></g><g transform="matrix(0.9999938011169434,0.0035259369760751724,-0.0035259369760751724,0.9999938011169434,351.8006591796875,439.07489013671875)" opacity="1" style="display: block;"><g opacity="1" transform="matrix(1,0,0,1,34.481998443603516,37.00299835205078)"><path fill="rgb(42,44,46)" fill-opacity="1" d=" M-4.171000003814697,-34.62900161743164 C13.461999893188477,-36.75299835205078 29.624000549316406,-22.97100067138672 31.92799949645996,-3.8459999561309814 C34.231998443603516,15.279000282287598 21.80500030517578,32.50400161743164 4.171000003814697,34.62900161743164 C-13.463000297546387,36.75299835205078 -29.624000549316406,22.97100067138672 -31.92799949645996,3.8459999561309814 C-34.231998443603516,-15.279000282287598 -21.80500030517578,-32.50400161743164 -4.171000003814697,-34.62900161743164z"/></g></g><g transform="matrix(0.9999827146530151,0.005875255446881056,-0.005875255446881056,0.9999827146530151,170.61468505859375,474.32818603515625)" opacity="1" style="display: block;"><g opacity="1" transform="matrix(1,0,0,1,62.970001220703125,49.77000045776367)"><path fill="rgb(248,124,34)" fill-opacity="1" d=" M9.4399995803833,-47.279998779296875 C-4.079999923706055,-49.52000045776367 -38.63999938964844,-12.720000267028809 -45.36000061035156,-3.759999990463257 C-52.08000183105469,5.199999809265137 -62.720001220703125,18.079999923706055 -58.880001068115234,27.760000228881836 C-52.880001068115234,42.79999923706055 -22.079999923706055,43.599998474121094 -4.079999923706055,45.040000915527344 C14.720000267028809,46.560001373291016 50.720001220703125,49.52000045776367 56.720001220703125,38.31999969482422 C62.720001220703125,27.040000915527344 50,-1.440000057220459 39.439998626708984,-18.719999313354492 C29.68000030517578,-34.79999923706055 23.520000457763672,-44.880001068115234 9.4399995803833,-47.279998779296875z"/></g></g></g><g clip-path="url(#__lottie_element_461)" transform="matrix(0.9787830710411072,0.0013012428535148501,-0.0013012428535148501,0.9787830710411072,-112.75709533691406,-257.5915222167969)" opacity="1" style="display: block;"><g transform="matrix(1,0,0,1,405.3500061035156,871.6700439453125)" opacity="1" style="display: none;"><g opacity="1" transform="matrix(1,0,0,1,75.29000091552734,76.29000091552734)"><path fill="rgb(248,124,34)" fill-opacity="1" d=" M-14.544171333312988,-77.22834014892578 C-14.544171333312988,-77.22834014892578 -10.725485801696777,-34.74745559692383 -10.566571235656738,-32.87351608276367 C-10.425028800964355,-31.204315185546875 -25.126399993896484,-38.93388748168945 -42.16725540161133,-36.66596984863281 C-53.4900016784668,-34.05965805053711 -60.75400161743164,-18.63222885131836 -47.90274429321289,-8.153085708618164 C-41.34588623046875,-1.0597714185714722 16.101715087890625,25.7911434173584 24.06502914428711,12.64102840423584 C34.32868576049805,-4.273600101470947 20.943485260009766,-76.12503051757812 20.943485260009766,-76.12503051757812 C20.943485260009766,-76.12503051757812 -14.544171333312988,-77.22834014892578 -14.544171333312988,-77.22834014892578z"/></g><g opacity="1" transform="matrix(1,0,0,1,185.85000610351562,107.80999755859375)"><path fill="rgb(248,124,34)" fill-opacity="1" d=" M35.88148498535156,-110.96085357666016 C35.88148498535156,-110.96085357666016 -1.233371376991272,-109.65034484863281 -1.233371376991272,-109.65034484863281 C-1.233371376991272,-109.65034484863281 -25.32954216003418,-61.492286682128906 -25.181257247924805,-60.251827239990234 C-25.021142959594727,-58.91279983520508 -43.45222854614258,-70.09154510498047 -60.04679870605469,-69.63011169433594 C-76.64137268066406,-69.16868591308594 -77.34994506835938,-54.08731460571289 -69.0561752319336,-46.43828582763672 C-59.83648681640625,-36.87480163574219 -33.761199951171875,-14.897314071655273 -14.375542640686035,-18.930828094482422 C5.0712571144104,-22.33851432800293 35.88148498535156,-110.96085357666016 35.88148498535156,-110.96085357666016z"/></g></g><g transform="matrix(0.9783639311790466,0.20689131319522858,0.20689131319522858,-0.9783639311790466,652.1661987304688,651.2295532226562)" opacity="1" style="display: none;"><g opacity="1" transform="matrix(1,0,0,1,220.7259979248047,116.677001953125)"><path fill="rgb(54,180,224)" fill-opacity="1" d=" M-104.89105987548828,-123.17950439453125 C-104.89105987548828,-123.17950439453125 -37.74724578857422,118.39946746826172 -0.7248954772949219,117.5366439819336 C-0.7248954772949219,117.5366439819336 12.459476470947266,101.0031509399414 12.459476470947266,101.0031509399414 C12.459476470947266,101.0031509399414 51.183135986328125,121.29911804199219 51.183135986328125,121.29911804199219 C51.183135986328125,121.29911804199219 63.14158630371094,106.58755493164062 63.14158630371094,106.58755493164062 C63.14158630371094,106.58755493164062 109.85724639892578,126.9536361694336 114.00924682617188,114.76863861083984 C120.59524536132812,95.44063568115234 114.63831329345703,74.0732650756836 85.46350860595703,11.580435752868652 C58.3185920715332,-46.63017272949219 -13.616480827331543,-169.04649353027344 -13.616480827331543,-169.04649353027344"/></g><g opacity="1" transform="matrix(1,0,0,1,208.3300018310547,133.73399353027344)"><path fill="rgb(2,106,168)" fill-opacity="1" d=" M-13.533980369567871,70.80702209472656 C-12.648101806640625,76.57400512695312 -13.864864349365234,80.17233276367188 -12.17971420288086,83.5323257446289 C-10.860843658447266,86.19194030761719 -6.05646276473999,97.64436340332031 -1.3272589445114136,102.704833984375 C4.376346588134766,108.6480941772461 14.01039981842041,112.17849731445312 20.755598068237305,108.85010528564453 C26.846691131591797,105.748046875 32.808448791503906,100.84754943847656 33.318782806396484,100.43959045410156 C34.10951232910156,99.8074951171875 52.83665466308594,118.10420227050781 67.31519317626953,114.82997131347656 C82.78779602050781,111.24983215332031 84.35255432128906,104.26448822021484 85.09606170654297,103.47459411621094 C85.86127471923828,102.66175079345703 112.51872253417969,131.02459716796875 135.14125061035156,106.56163787841797 C170.30044555664062,66.76461791992188 14.989392280578613,-189.55242919921875 5.291758060455322,-172.56211853027344 C-2.328594207763672,-158.59927368164062 125.2493667602539,47.323890686035156 109.14765167236328,76.95340728759766 C94.01368713378906,104.32682800292969 68.28193664550781,75.38288116455078 66.94550323486328,76.84886169433594 C66.12263488769531,77.75157928466797 63.63357925415039,85.80382537841797 54.012123107910156,88.81889343261719 C46.35798645019531,91.30843353271484 18.616737365722656,75.30512237548828 17.9833927154541,75.81007385253906 C17.004138946533203,76.59085845947266 15.672123908996582,81.76814270019531 8.9806489944458,87.83460998535156 C6.318518161773682,90.28060150146484 2.3324954509735107,88.83060455322266 0.42246583104133606,86.7613754272461 C-2.856628179550171,82.7879409790039 -16.796003341674805,53.766075134277344 -13.533980369567871,70.80702209472656z"/></g></g><g transform="matrix(-0.5773053169250488,0.8165283799171448,-0.8165283799171448,-0.5773053169250488,542.8920288085938,518.3768310546875)" opacity="1" style="display: none;"><g opacity="1" transform="matrix(1,0,0,1,220.7259979248047,116.677001953125)"><path fill="rgb(54,180,224)" fill-opacity="1" d=" M-169.4092559814453,-49.323997497558594 C-67.13798522949219,32.90843200683594 -60.87734603881836,202.6922149658203 -9.79989242553711,197.64788818359375 C12.834606170654297,194.1039581298828 15.358126640319824,154.33778381347656 15.358126640319824,154.33778381347656 C15.358126640319824,154.33778381347656 39.451473236083984,138.75331115722656 39.451473236083984,138.75331115722656 C39.451473236083984,138.75331115722656 46.09010314941406,102.35691833496094 46.09010314941406,102.35691833496094 C46.09010314941406,102.35691833496094 78.61139678955078,82.85721588134766 82.76339721679688,71.88111114501953 C89.34939575195312,54.47079849243164 106.64847564697266,21.3327693939209 75.90347290039062,-34.281494140625 C52.723472595214844,-76.21125793457031 -19.498821258544922,-165.8001251220703 -19.498821258544922,-165.8001251220703"/></g><g opacity="1" transform="matrix(1,0,0,1,208.3300018310547,133.73399353027344)"><path fill="rgb(2,106,168)" fill-opacity="1" d=" M-15.44726276397705,173.25706481933594 C-17.817840576171875,177.71554565429688 -10.738022804260254,180.3389434814453 -7.309595584869385,181.60052490234375 C-5.140511512756348,182.40809631347656 2.203540086746216,184.19650268554688 6.90632963180542,184.43263244628906 C14.461033821105957,184.84674072265625 19.980310440063477,183.48794555664062 25.44331169128418,178.27294921875 C32.7423095703125,171.3059539794922 29.794565200805664,160.7228240966797 35.48891067504883,152.5999298095703 C42.54491424560547,142.6990509033203 54.542694091796875,141.0132293701172 62.59423828125,130.5366668701172 C75.3690185546875,113.66667938232422 66.7446060180664,102.62026977539062 75.7206039428711,93.08426666259766 C84.95760345458984,83.27127075195312 93.71945190429688,76.3988265991211 103.89451599121094,62.7962760925293 C178.5169219970703,-33.58278274536133 0.9649246335029602,-209.1436004638672 -25.529878616333008,-185.99716186523438 C-40.94949722290039,-172.85842895507812 122.6815185546875,-36.70302963256836 78.83551788330078,42.41573715209961 C64.86451721191406,67.6265869140625 67.2569808959961,58.47792053222656 51.122982025146484,76.17591857910156 C41.18810272216797,87.07392120361328 49.70867919921875,105.9149398803711 42.6066780090332,113.22693634033203 C35.504676818847656,120.5389404296875 26.760883331298828,121.81951904296875 20.950685501098633,129.6306915283203 C11.769244194030762,141.99485778808594 14.629122734069824,158.36305236816406 10.801445007324219,165.23207092285156 C8.47059440612793,169.42445373535156 4.9306817054748535,169.50909423828125 -0.3771934509277344,170.95510864257812 C-5.228384494781494,172.30894470214844 -13.473108291625977,169.54566955566406 -15.44726276397705,173.25706481933594z"/></g></g><g transform="matrix(-0.9518851041793823,0.3064550757408142,-0.3064550757408142,-0.9518851041793823,626.6260986328125,572.54248046875)" opacity="1" style="display: block;"><g opacity="1" transform="matrix(1,0,0,1,220.7259979248047,116.677001953125)"><path fill="rgb(54,180,224)" fill-opacity="1" d=" M-167.3478240966797,-47.3670768737793 C-74.07485961914062,33.45220184326172 -56.24458694458008,202.8296661376953 -13.131586074829102,196.0796661376953 C12.575413703918457,192.05467224121094 12.718878746032715,155.5062255859375 12.718878746032715,155.5062255859375 C12.718878746032715,155.5062255859375 38.22615432739258,140.58644104003906 38.22615432739258,140.58644104003906 C38.22615432739258,140.58644104003906 45.785003662109375,100.7379379272461 45.785003662109375,100.7379379272461 C45.785003662109375,100.7379379272461 83.92877960205078,81.0778579711914 88.20523834228516,68.85755157470703 C94.85819244384766,49.6790771484375 113.88260650634766,23.383825302124023 83.14173126220703,-38.35622024536133 C59.74519348144531,-85.348388671875 -21.604450225830078,-164.0543975830078 -21.604450225830078,-164.0543975830078"/></g><g opacity="1" transform="matrix(1,0,0,1,208.3300018310547,133.73399353027344)"><path fill="rgb(2,106,168)" fill-opacity="1" d=" M-16.022586822509766,172.7397003173828 C-18.367586135864258,177.07769775390625 -11.740614891052246,178.8616943359375 -8.245615005493164,179.96170043945312 C-6.055614948272705,180.65069580078125 1.0223852396011353,182.0826873779297 5.772385120391846,182.13369750976562 C13.29338550567627,182.21469116210938 18.715776443481445,180.92027282714844 24.178775787353516,175.7052764892578 C31.47777557373047,168.73828125 27.7423038482666,162.3197784423828 33.3733024597168,153.7627716064453 C40.091304779052734,143.55377197265625 54.130126953125,142.9644775390625 61.89912414550781,132.20046997070312 C74.7291259765625,114.42546844482422 67.10100555419922,100.33993530273438 76.0770034790039,90.8039321899414 C85.31500244140625,80.99093627929688 100.15526580810547,73.6403579711914 109.3328857421875,60.6466064453125 C186.54803466796875,-48.670570373535156 -8.437477111816406,-228.2247314453125 -36.07847595214844,-203.23672485351562 C-51.154476165771484,-189.60772705078125 128.1261749267578,-49.2043571472168 84.27920532226562,38.108028411865234 C70.30818176269531,65.92945861816406 66.95100402832031,56.85793685913086 50.8170051574707,74.55593872070312 C40.88200378417969,85.45393371582031 48.27515411376953,107.99344635009766 41.173152923583984,115.3054428100586 C34.0711555480957,122.61743927001953 23.882022857666016,122.62052917480469 18.321022033691406,130.66452026367188 C9.498022079467773,143.42752075195312 12.745413780212402,156.0266876220703 9.167413711547852,162.87168884277344 C6.973413944244385,167.06968688964844 3.406414031982422,167.1366729736328 -1.8305859565734863,169.04367065429688 C-6.669586181640625,170.8056640625 -14.069585800170898,169.12869262695312 -16.022586822509766,172.7397003173828z"/></g></g><g transform="matrix(1,0,0,1,172.05712890625,265.42999267578125)" opacity="1" style="display: block;"><g opacity="1" transform="matrix(1,0,0,1,454.80999755859375,330.4100036621094)"><path fill="rgb(54,180,224)" fill-opacity="1" d=" M235.9930419921875,139.61700439453125 C248.49903869628906,91.68299865722656 247.4353790283203,66.15599822998047 245.09437561035156,-0.6039999723434448 C243.29737854003906,-51.84000015258789 203.47813415527344,-130.69500732421875 197.8271484375,-136.98399353027344 C183.46214294433594,-152.9709930419922 139.7391357421875,-148.64999389648438 49.460140228271484,-152.52000427246094 C-72.55586242675781,-157.75100708007812 -114.0258560180664,-148.47900390625 -116.99785614013672,-122.35800170898438 C-127.68885803222656,-63.099998474121094 222.6063690185547,7.89300012588501 222.6063690185547,7.89300012588501 C222.6063690185547,7.89300012588501 216.2201385498047,-84.5979995727539 205.6211395263672,-120.2239990234375 C182.02813720703125,-199.5279998779297 137.55665588378906,-275.3160095214844 22.048662185668945,-269.1180114746094 C-78.28234100341797,-263.7340087890625 -127.21286010742188,-205.31700134277344 -157.28985595703125,-110.23999786376953 C-178.11386108398438,-44.4109992980957 -175.8047637939453,18.013999938964844 -174.44876098632812,65.50299835205078 C-172.52976989746094,132.6840057373047 -162.98077392578125,172.1009979248047 -133.19276428222656,213.7239990234375 C-98.52976989746094,262.1600036621094 -61.668338775634766,288.2550048828125 29.00566291809082,291.34600830078125 C111.5566635131836,294.1600036621094 139.1034698486328,275.3070068359375 170.6414794921875,247.4969940185547 C205.58546447753906,216.6840057373047 224.3660430908203,184.18099975585938 235.9930419921875,139.61700439453125z"/></g></g><g transform="matrix(1,0,0,1,405.3500061035156,871.6699829101562)" opacity="1" style="display: block;"><g opacity="1" transform="matrix(1,0,0,1,75.29000091552734,76.29000091552734)"><path fill="rgb(248,124,34)" fill-opacity="1" d=" M84.59614562988281,-138.73097229003906 C65.00787353515625,-98.80809020996094 40.18248748779297,-67.40106964111328 20.3953800201416,-50.66970443725586 C-6.72880744934082,-27.7255859375 -41.75419616699219,-74.04888153076172 -57.43541717529297,-104.10377502441406 C-67.52560424804688,-123.29180145263672 -55.063716888427734,-143.6233673095703 -34.549774169921875,-132.92726135253906 C-12.500575065612793,-121.5352554321289 -3.8503222465515137,-89.25695037841797 3.6921796798706055,-90.62345886230469 C9.403560638427734,-91.65155029296875 47.45627212524414,-144.4715118408203 53.29411315917969,-157.20835876464844 C60.697269439697266,-173.5161895751953 101.80146026611328,-173.45249938964844 84.59614562988281,-138.73097229003906z"/></g><g opacity="1" transform="matrix(1,0,0,1,185.85000610351562,107.80999755859375)"><path fill="rgb(248,124,34)" fill-opacity="1" d=" M170.7218475341797,-175.44039916992188 C185.9245147705078,-127.86445617675781 208.598876953125,-64.5572509765625 231.86746215820312,-53.19926452636719 C255.13604736328125,-41.841278076171875 291.5540466308594,-89.26310729980469 306.7397155761719,-120.4919662475586 C321.92535400390625,-151.72178649902344 289.5552978515625,-161.98545837402344 270.82220458984375,-140.0354766845703 C252.090087890625,-118.08550262451172 250.21734619140625,-104.90850067138672 244.62057495117188,-105.1687240600586 C236.3904266357422,-105.55066680908203 214.23280334472656,-168.16680908203125 200.56455993652344,-196.79818725585938 C194.64739990234375,-209.49234008789062 160.593017578125,-207.30714416503906 170.7218475341797,-175.44039916992188z"/></g></g><g transform="matrix(0.5636611580848694,0.8260061144828796,0.8260061144828796,-0.5636611580848694,684.9522094726562,524.7639770507812)" opacity="1" style="display: none;"><g opacity="1" transform="matrix(1,0,0,1,220.7259979248047,116.677001953125)"><path fill="rgb(54,180,224)" fill-opacity="1" d=" M-169.4092559814453,-49.323997497558594 C-88.12335205078125,21.286096572875977 -62.756290435791016,206.3638153076172 -11.678836822509766,201.31948852539062 C10.95566177368164,197.7755584716797 13.303086280822754,162.18199157714844 13.303086280822754,162.18199157714844 C13.303086280822754,162.18199157714844 37.41580581665039,144.0987091064453 37.41580581665039,144.0987091064453 C37.41580581665039,144.0987091064453 44.89529037475586,104.25787353515625 44.89529037475586,104.25787353515625 C44.89529037475586,104.25787353515625 76.2508316040039,82.27081298828125 80.40283203125,72.28965759277344 C86.98883056640625,56.45628356933594 107.68920135498047,33.481632232666016 76.94419860839844,-28.25636863708496 C53.76420211791992,-74.8033676147461 -26.17374038696289,-155.6165008544922 -26.17374038696289,-155.6165008544922"/></g><g opacity="1" transform="matrix(1,0,0,1,208.3300018310547,133.73399353027344)"><path fill="rgb(2,106,168)" fill-opacity="1" d=" M-17.326208114624023,176.9286651611328 C-19.69678497314453,181.38714599609375 -12.61696720123291,184.0104217529297 -9.188539505004883,185.27200317382812 C-7.019455909729004,186.07957458496094 0.32459568977355957,187.86810302734375 5.027385234832764,188.10423278808594 C12.582090377807617,188.51834106445312 18.10224723815918,187.1595458984375 23.56524658203125,181.94454956054688 C30.864246368408203,174.97755432128906 27.739524841308594,168.56790161132812 33.433868408203125,160.44500732421875 C40.489871978759766,150.54412841796875 52.507904052734375,146.3594970703125 60.559452056884766,135.88294982910156 C73.334228515625,119.01295471191406 65.54891204833984,104.52034759521484 74.52490997314453,94.98434448242188 C83.76290893554688,85.17134094238281 93.73115539550781,80.15633392333984 102.75957489013672,66.71089172363281 C171.0416259765625,-34.619571685791016 -12.926602363586426,-220.88735961914062 -40.567604064941406,-195.89935302734375 C-55.64360427856445,-182.27035522460938 120.32183074951172,-28.002126693725586 76.475830078125,43.94865417480469 C62.50395202636719,66.87553405761719 66.06128692626953,60.37799835205078 49.92729187011719,78.07599639892578 C39.992408752441406,88.9739990234375 47.67300796508789,111.26033020019531 40.571006774902344,118.57233428955078 C33.46900939941406,125.88433074951172 23.06903076171875,125.2798080444336 17.258832931518555,133.0909881591797 C8.077391624450684,145.45513916015625 12.750178337097168,162.03465270996094 8.922500610351562,168.90367126464844 C6.591650485992432,173.09605407714844 3.0526180267333984,173.18069458007812 -2.2552573680877686,174.626708984375 C-7.106448173522949,175.9805450439453 -15.352052688598633,173.21726989746094 -17.326208114624023,176.9286651611328z"/></g></g><g transform="matrix(0.4614356756210327,-0.8871736526489258,0.8871736526489258,0.4614356756210327,762.198974609375,663.4287109375)" opacity="1" style="display: block;"><g opacity="1" transform="matrix(1,0,0,1,220.7259979248047,116.677001953125)"><path fill="rgb(54,180,224)" fill-opacity="1" d=" M-173.95199584960938,-35.375 C-173.95199584960938,-35.375 -34.96947479248047,92.19880676269531 32.130523681640625,74.64480590820312 C32.130523681640625,74.64480590820312 95.7522201538086,36.877105712890625 95.7522201538086,36.877105712890625 C95.7522201538086,36.877105712890625 139.0087890625,26.48636245727539 139.0087890625,26.48636245727539 C139.0087890625,26.48636245727539 157.12344360351562,5.326009273529053 157.12344360351562,5.326009273529053 C157.12344360351562,5.326009273529053 182.9239959716797,2.1369712352752686 189.8040008544922,-8.74302864074707 C200.6840057373047,-26.02202796936035 190.6646270751953,-36.851776123046875 174.10165405273438,-45.701210021972656 C146.49139404296875,-60.42634582519531 47.64503479003906,-62.27500534057617 -44.42320251464844,-160.24520874023438"/></g><g opacity="1" transform="matrix(1,0,0,1,208.3300018310547,133.73399353027344)"><path fill="rgb(2,106,168)" fill-opacity="1" d=" M-140.780517578125,-45.40592575073242 C-140.780517578125,-45.40592575073242 -174.4147491455078,-29.337125778198242 -174.4147491455078,-29.337125778198242 C-174.4147491455078,-29.337125778198242 -102.43169403076172,42.88631057739258 -27.279693603515625,63.32630920410156 C26.612306594848633,77.98330688476562 64.23115539550781,72.65641784667969 88.8509750366211,59.35454559326172 C103.35746002197266,51.49102020263672 114.49321746826172,34.99610900878906 122.03121948242188,29.860107421875 C133.00921630859375,22.29610824584961 140.07679748535156,29.59536361694336 158.86679077148438,17.633363723754883 C172.39479064941406,9.027362823486328 172.46218872070312,-2.377126693725586 179.60618591308594,-7.61812686920166 C186.66519165039062,-12.784127235412598 195.85935974121094,-10.560638427734375 202.02935791015625,-15.622638702392578 C213.1023712158203,-24.703638076782227 208.3022003173828,-49.586673736572266 200.88719177246094,-51.496673583984375 C193.47219848632812,-53.406673431396484 196.56333923339844,-32.95063781738281 188.86734008789062,-30.389638900756836 C181.1713409423828,-27.828638076782227 172.89144897460938,-30.356990814208984 158.42044067382812,-23.332990646362305 C146.0214385986328,-17.380990982055664 150.9127960205078,-6.915637016296387 142.31179809570312,-1.4456371068954468 C133.71080017089844,4.024363040924072 123.91921997070312,-3.967892646789551 103.00921630859375,6.0171074867248535 C91.68821716308594,11.39510726928711 81.45167541503906,35.349124908447266 49.48667907714844,40.14812469482422 C9.835678100585938,46.06512451171875 -36.33700180053711,20.895477294921875 -72.54547119140625,2.509805202484131 C-124.76483917236328,-24.03512954711914 -140.780517578125,-45.40592575073242 -140.780517578125,-45.40592575073242z"/></g></g><g transform="matrix(-0.9666016697883606,0.25628337264060974,-0.25628337264060974,-0.9666016697883606,566.2747802734375,638.7489013671875)" opacity="1" style="display: none;"><g opacity="1" transform="matrix(1,0,0,1,220.7259979248047,116.677001953125)"><path fill="rgb(54,180,224)" fill-opacity="1" d=" M-104.89105987548828,-123.17950439453125 C-104.89105987548828,-123.17950439453125 -37.74724578857422,118.39946746826172 -0.7248954772949219,117.5366439819336 C-0.7248954772949219,117.5366439819336 12.459476470947266,101.0031509399414 12.459476470947266,101.0031509399414 C12.459476470947266,101.0031509399414 51.183135986328125,121.29911804199219 51.183135986328125,121.29911804199219 C51.183135986328125,121.29911804199219 63.14158630371094,106.58755493164062 63.14158630371094,106.58755493164062 C63.14158630371094,106.58755493164062 109.85724639892578,126.9536361694336 114.00924682617188,114.76863861083984 C120.59524536132812,95.44063568115234 114.63831329345703,74.0732650756836 85.46350860595703,11.580435752868652 C58.3185920715332,-46.63017272949219 -10.288999557495117,-180.82200622558594 -10.288999557495117,-180.82200622558594"/></g><g opacity="1" transform="matrix(1,0,0,1,208.3300018310547,133.73399353027344)"><path fill="rgb(2,106,168)" fill-opacity="1" d=" M-13.533980369567871,70.80702209472656 C-12.648101806640625,76.57400512695312 -13.864864349365234,80.17233276367188 -12.17971420288086,83.5323257446289 C-10.860843658447266,86.19194030761719 -6.05646276473999,97.64436340332031 -1.3272589445114136,102.704833984375 C4.376346588134766,108.6480941772461 14.01039981842041,112.17849731445312 20.755598068237305,108.85010528564453 C26.846691131591797,105.748046875 32.808448791503906,100.84754943847656 33.318782806396484,100.43959045410156 C34.10951232910156,99.8074951171875 52.83665466308594,118.10420227050781 67.31519317626953,114.82997131347656 C82.78779602050781,111.24983215332031 84.35255432128906,104.26448822021484 85.09606170654297,103.47459411621094 C85.86127471923828,102.66175079345703 112.51872253417969,131.02459716796875 135.14125061035156,106.56163787841797 C170.30044555664062,66.76461791992188 20.295202255249023,-194.8041229248047 10.597567558288574,-177.81381225585938 C2.977215051651001,-163.85096740722656 125.2493667602539,47.323890686035156 109.14765167236328,76.95340728759766 C94.01368713378906,104.32682800292969 68.28193664550781,75.38288116455078 66.94550323486328,76.84886169433594 C66.12263488769531,77.75157928466797 63.63357925415039,85.80382537841797 54.012123107910156,88.81889343261719 C46.35798645019531,91.30843353271484 18.616737365722656,75.30512237548828 17.9833927154541,75.81007385253906 C17.004138946533203,76.59085845947266 15.672123908996582,81.76814270019531 8.9806489944458,87.83460998535156 C6.318518161773682,90.28060150146484 2.3324954509735107,88.83060455322266 0.42246583104133606,86.7613754272461 C-2.856628179550171,82.7879409790039 -16.796003341674805,53.766075134277344 -13.533980369567871,70.80702209472656z"/></g></g><g mask="url(#__lottie_element_474_1)" style="display: block;"><g transform="matrix(0.7545613050460815,0.11036673188209534,-0.14472617208957672,0.9894717335700989,491.4021301269531,464.75830078125)" opacity="1"><g opacity="1" transform="matrix(1,0,0,1,34.481998443603516,37.00299835205078)"><path fill="rgb(42,44,46)" fill-opacity="1" d=" M-4.171000003814697,-34.62900161743164 C13.461999893188477,-36.75299835205078 29.624000549316406,-22.97100067138672 31.92799949645996,-3.8459999561309814 C34.231998443603516,15.279000282287598 21.80500030517578,32.50400161743164 4.171000003814697,34.62900161743164 C-13.463000297546387,36.75299835205078 -29.624000549316406,22.97100067138672 -31.92799949645996,3.8459999561309814 C-34.231998443603516,-15.279000282287598 -21.80500030517578,-32.50400161743164 -4.171000003814697,-34.62900161743164z"/></g></g></g><g transform="matrix(0.7569689154624939,-0.21500100195407867,0.27322185039520264,0.9619510769844055,729.810546875,443.75433349609375)" opacity="1" style="display: block;"><g opacity="1" transform="matrix(1,0,0,1,34.481998443603516,37.00299835205078)"><path fill="rgb(42,44,46)" fill-opacity="1" d=" M-4.171000003814697,-34.62900161743164 C13.461999893188477,-36.75299835205078 29.624000549316406,-22.97100067138672 31.92799949645996,-3.8459999561309814 C34.231998443603516,15.279000282287598 21.80500030517578,32.50400161743164 4.171000003814697,34.62900161743164 C-13.463000297546387,36.75299835205078 -29.624000549316406,22.97100067138672 -31.92799949645996,3.8459999561309814 C-34.231998443603516,-15.279000282287598 -21.80500030517578,-32.50400161743164 -4.171000003814697,-34.62900161743164z"/></g></g><g transform="matrix(1,0,0,1,469.0004577636719,393.5469665527344)" opacity="1" style="display: none;"><g opacity="1" transform="matrix(1,0,0,1,0,0)"><path stroke-linecap="round" stroke-linejoin="round" fill-opacity="0" stroke="rgb(42,45,47)" stroke-opacity="1" stroke-width="16" d=" M-96.98999786376953,-4.493000030517578 C-106.76399993896484,6.710000038146973 -146.32400512695312,13.555000305175781 -158.76800537109375,-13.555999755859375 M96.98999786376953,-4.493000030517578 C106.76399993896484,6.710000038146973 146.32400512695312,13.555000305175781 158.76800537109375,-13.555999755859375"/></g></g><g transform="matrix(0.9398059844970703,0.3417085111141205,-0.3417085111141205,0.9398059844970703,356.3880615234375,327.4590759277344)" opacity="1" style="display: block;"><g opacity="1" transform="matrix(1,0,0,1,62.970001220703125,49.77000045776367)"><path fill="rgb(248,124,34)" fill-opacity="1" d=" M245.13499450683594,-26.041000366210938 C230.74600219726562,-21.02400016784668 225.30299377441406,-13.987000465393066 217.05599975585938,-0.4819999933242798 C208.8090057373047,13.02299976348877 207.75100708007812,26.95800018310547 211.9080047607422,36.50600051879883 C215.8560028076172,45.57400131225586 237.21499633789062,69.1969985961914 251.88499450683594,70.08200073242188 C267.62298583984375,71.03099822998047 294.41400146484375,61.16899871826172 300.2969970703125,52.70399856567383 C306.2969970703125,41.42399978637695 314.70098876953125,10.317000389099121 304.1409912109375,-6.9629998207092285 C294.3810119628906,-23.042999267578125 259.52398681640625,-31.058000564575195 245.13499450683594,-26.041000366210938z"/></g></g></g></g></svg>